{
  "accessors": [
    {
      "bufferView": 2,
      "componentType": 5126,
      "count": 10153,
      "max": [
        1.3157039880752563,
        1.853814959526062,
        2.921523094177246
      ],
      "min": [
        -1.3206809759140015,
        -1.5606160163879395,
        0.0660490021109581
      ],
      "type": "VEC3"
    },
    {
      "bufferView": 2,
      "byteOffset": 121836,
      "componentType": 5126,
      "count": 10153,
      "max": [
        0.9999767541885376,
        0.9996293187141418,
        0.9995635151863098
      ],
      "min": [
        -0.9998325705528259,
        -0.9998413920402527,
        -0.9999154806137085
      ],
      "type": "VEC3"
    },
    {
      "bufferView": 1,
      "componentType": 5126,
      "count": 10153,
      "max": [
        0.9823169708251953,
        0.9920700192451477
      ],
      "min": [
        0.007933000102639198,
        0.01838500052690506
      ],
      "type": "VEC2"
    },
    {
      "bufferView": 0,
      "componentType": 5125,
      "count": 57762,
      "type": "SCALAR"
    }
  ],
  "asset": {
    "extras": {
      "author": "snofaeratu (https://sketchfab.com/snofaeratu)",
      "license": "CC-BY-NC-4.0 (http://creativecommons.org/licenses/by-nc/4.0/)",
      "source": "https://sketchfab.com/3d-models/skull-of-snofaeratu-6f354fff46964403aa7abd1dc9692837",
      "title": "Skull of Snofaeratu"
    },
    "generator": "Sketchfab-14.87.0",
    "version": "2.0"
  },
  "bufferViews": [
    {
      "buffer": 0,
      "byteLength": 231048,
      "name": "floatBufferViews",
      "target": 34963
    },
    {
      "buffer": 0,
      "byteLength": 81224,
      "byteOffset": 231048,
      "byteStride": 8,
      "name": "floatBufferViews",
      "target": 34962
    },
    {
      "buffer": 0,
      "byteLength": 243672,
      "byteOffset": 312272,
      "byteStride": 12,
      "name": "floatBufferViews",
      "target": 34962
    }
  ],
  "buffers": [
    {
      "byteLength": 555944,
      "uri": "scene.bin"
    }
  ],
  "images": [
    {
      "uri": "textures/old_cranium_baseColor.jpeg"
    },
    {
      "uri": "textures/old_cranium_metallicRoughness.png"
    }
  ],
  "materials": [
    {
      "doubleSided": true,
      "name": "old_cranium",
      "pbrMetallicRoughness": {
        "baseColorFactor": [
          0.4957084452412753,
          0.4957084452412753,
          0.4957084452412753,
          1.0
        ],
        "baseColorTexture": {
          "index": 0
        },
        "metallicFactor": 0.314,
        "metallicRoughnessTexture": {
          "index": 1
        },
        "roughnessFactor": 0.88
      }
    }
  ],
  "meshes": [
    {
      "name": "Object_0",
      "primitives": [
        {
          "attributes": {
            "NORMAL": 1,
            "POSITION": 0,
            "TEXCOORD_0": 2
          },
          "indices": 3,
          "material": 0,
          "mode": 4
        }
      ]
    }
  ],
  "nodes": [
    {
      "children": [
        1
      ],
      "matrix": [
        1.0,
        0.0,
        0.0,
        0.0,
        0.0,
        -0.052526496350765006,
        -0.998619556427002,
        0.0,
        0.0,
        0.998619556427002,
        -0.052526496350765006,
        0.0,
        0.0,
        0.0,
        0.0,
        1.0
      ],
      "name": "Sketchfab_model"
    },
    {
      "children": [
        2
      ],
      "name": "old_cranium.obj.cleaner.materialmerger.gles"
    },
    {
      "mesh": 0,
      "name": "Object_2"
    }
  ],
  "samplers": [
    {
      "magFilter": 9729,
      "minFilter": 9987,
      "wrapS": 10497,
      "wrapT": 10497
    }
  ],
  "scene": 0,
  "scenes": [
    {
      "name": "Sketchfab_Scene",
      "nodes": [
        0
      ]
    }
  ],
  "textures": [
    {
      "sampler": 0,
      "source": 0
    },
    {
      "sampler": 0,
      "source": 1
    }
  ]
}
